<svg width="1295" height="315" viewBox="0 0 1295 315" fill="none" xmlns="http://www.w3.org/2000/svg">
<g clip-path="url(#clip0_18689_35214)">
<path d="M1151.79 225.513L1145.73 211.653H1107L1100.68 225.403H1070.85L1049.7 200.973L1036.12 200.793L1036.19 225.253L1022.26 225.373V151.873L1060.59 152.183C1075.29 152.303 1085.49 165.363 1083.59 179.373C1082.86 189.883 1075.87 197.283 1065.17 199.383L1086.57 223.523L1118.75 151.933L1133.83 151.773L1166.85 225.263L1151.8 225.503L1151.79 225.513ZM1059.14 188.293C1066.56 188.233 1070.54 181.253 1070 175.403C1069.39 168.913 1064.42 164.743 1057.57 164.723L1036.12 164.673L1036.21 188.463L1059.15 188.283L1059.14 188.293ZM1140.07 198.683L1126.34 167.383L1112.58 198.703L1140.08 198.683H1140.07Z" fill="black"/>
<path d="M613.22 86.7882L591.96 69.6982C582.9 62.4082 565.22 48.8882 560.45 55.0282L545.96 73.6982C538.64 83.1282 531.22 92.0082 522.07 99.7182C518.2 102.978 512.3 105.518 507.4 104.308C496.7 101.668 487.85 94.6782 481.55 86.3382C478.35 80.3482 479.32 74.2182 484.75 70.4782C496.69 53.7982 509.97 38.8282 525.15 25.1182L539.88 11.8182C554.1 -1.03175 576.87 -4.19177 592.71 6.26823C605.61 14.7882 616.98 24.7882 628.47 35.2282L646.82 55.1882C650.83 51.2182 656.06 46.9382 661.85 48.9982C666.36 50.6082 669.38 56.5582 670.52 61.3282C674.57 78.3782 677.42 95.0382 679.52 112.468C679.93 115.908 679.6 118.978 678.99 122.858L648.7 119.978C636.01 118.768 623.91 114.838 612.69 108.998C608.12 106.618 605.34 101.988 607.11 96.6682C608.18 93.4682 610.46 90.5182 613.21 86.7982L613.22 86.7882ZM615.55 89.6982C613.58 93.4682 612.3 97.5482 612.73 101.768C627.51 108.798 642.76 111.188 658.4 115.238L676.49 119.928L667.87 83.0482C665.64 73.5182 664.65 63.8482 660.99 55.0582C656.88 53.1382 650.99 56.1082 649.72 59.1882L653.05 67.8482C647.56 65.2682 645.95 60.9982 642.21 57.3982C625.23 41.0682 607.99 25.8482 589.14 11.6982C581.04 5.61819 570.12 2.56822 560.4 5.47822C553.04 7.67822 547.3 13.4482 541.91 18.7882L488.35 71.8582C478.57 81.5482 499.64 95.3882 512.81 101.248L521.3 92.9682C531.98 79.7482 541.96 66.8782 554.07 54.9282C565.45 43.7082 577.68 50.9782 590.71 60.0282C601.49 67.5182 610.39 76.6282 619.7 85.9082C621.75 87.9582 622.66 89.2582 623.77 92.9382L615.56 89.6882L615.55 89.6982Z" fill="#126937"/>
<path d="M536.69 249.403C551.67 254.473 551.52 274.443 546.55 289.403C543.63 295.353 537.96 299.043 531.69 296.233C506.01 295.503 481.52 290.333 456.85 283.633C446.88 280.923 437.99 277.713 430.95 270.163C424.13 262.843 418.46 254.613 418.36 243.673C418.12 218.523 422.23 193.263 429.62 169.233C424.22 168.123 418.66 166.123 416.5 160.843C414.93 156.993 417.32 152.473 419.31 148.853L435.65 132.153C445.54 122.043 455.72 112.973 468.39 104.883C479.99 121.923 506.29 177.003 485.42 179.973C481.95 180.463 478.23 180.213 474.58 179.873L471.63 210.233C470.67 220.123 470 236.083 474.07 240.043C475.25 241.183 478.97 241.213 481 241.423L513.43 244.673C521.38 245.473 529.2 246.873 536.68 249.403H536.69ZM540.63 286.133L542.65 272.253C543.44 266.853 543 261.073 541.5 255.843C535.53 254.013 530.07 253.093 524.21 252.643C508.65 251.453 493.93 249.703 478.56 246.393C475.14 245.653 469.84 242.273 468.31 239.303C464.43 231.753 464.49 223.613 464.22 215.303C465.15 200.023 467.41 185.713 471.64 171.083L474.19 168.363L475.38 175.473C478.64 176.363 485.05 176.193 486.71 171.993C488.16 168.323 486.03 162.693 484.95 158.853L478.26 138.353L467.7 108.373C457.23 120.753 445.69 131.973 434.16 143.613L423.17 154.703C422.14 155.743 421.42 160.073 422.64 160.823L430.83 165.863L436.68 157.253C437.42 162.223 435.28 166.043 434.27 170.933C429.56 193.853 426.34 216.703 424.74 240.163C424.05 250.223 426.5 260.833 433.66 267.493C439.96 273.343 448.53 274.953 456.56 276.803L489 284.263L530.89 292.563C535.22 293.423 539.96 290.723 540.62 286.133H540.63Z" fill="#21335F"/>
<path d="M95.17 151.901H110.65L84.23 225.261L72.25 225.381L55.4 179.441C49.97 195.741 44.92 210.431 38.7 225.371L27.01 225.481L0 151.981H15.5L32.82 204.821L50.85 151.951H59.83L78.25 204.851L95.17 151.891V151.901Z" fill="black"/>
<path d="M576.18 296.037C573.7 295.027 571.32 293.117 569.32 291.337C576.88 277.447 585.51 265.667 596 254.187L609.51 241.857C613.06 238.617 619.04 236.417 623.41 238.767C627.78 241.117 630.05 245.947 631.8 250.927L672.04 233.487C677.56 231.097 682.33 226.997 685.92 222.497L673.65 193.437C669.55 183.737 665.64 173.937 663.78 163.617C660.97 148.017 678.16 139.507 693.08 135.697C700.83 134.777 706.91 139.247 707.77 146.757L720.29 176.127C726 192.687 730.04 209.247 733.73 226.457C736.96 241.517 728.53 262.577 713.3 270.847C693.79 281.437 666.24 291.287 643.85 295.247C645.16 300.127 646.17 306.037 643.2 310.347C640.64 314.057 634.64 315.027 630.11 313.917C611.53 309.357 593.92 303.257 576.17 296.037H576.18ZM572.08 290.707C590.33 295.057 608.52 300.407 626.9 306.247C629.8 307.167 634.72 308.287 637.16 307.687C641.46 305.557 640.66 298.687 639.4 296.157L629.18 294.957C634.89 291.407 638.94 292.007 644.05 290.367C666.85 283.067 689 275.257 710.6 265.117C719.19 261.087 726.9 253.417 728.77 244.287C730.64 235.157 727.9 226.937 725.52 218.807L707.48 157.037C706.01 152.017 704.69 146.187 700.23 143.167C694.84 139.507 676.14 149.017 667.11 155.337L671.62 170.647C677.88 185.237 684.02 199.357 688.24 214.657C689.81 220.347 689.02 227.197 684.79 231.267C677.97 237.837 669.76 242.597 661.01 246.247C648.35 251.527 636.29 256.027 621.96 257.877C623.41 255.147 625.4 254.117 628.14 252.247C626.91 249.447 623.26 244.267 620.14 244.247C615.28 244.227 611.99 248.457 609.06 251.277L601.9 258.177L590.53 270.807L572.06 290.727L572.08 290.707Z" fill="#BE352F"/>
<path d="M562.961 184.997C569.581 188.147 573.921 194.647 573.991 201.867C574.071 209.797 570.371 216.697 562.801 220.287C558.621 221.587 553.501 223.097 549.011 223.097H511.371L511.431 149.477L551.821 149.777C558.081 149.827 564.391 153.657 567.531 157.567C573.851 165.447 574.041 178.777 562.961 184.997ZM555.511 165.337C553.501 163.387 549.591 161.937 547.171 161.947L524.971 162.097L525.171 179.007L550.181 178.817C552.781 178.797 556.471 176.197 557.361 174.207C558.471 171.747 558.001 167.737 555.521 165.327L555.511 165.337ZM558.281 206.207C561.051 203.587 560.531 198.507 558.231 196.157C555.101 192.957 550.501 191.267 546.091 191.267L524.991 191.307L525.131 210.147L545.091 210.247C549.491 210.267 554.761 209.517 558.281 206.207Z" fill="black"/>
<path d="M827.35 225.474L827.17 172.694L801.86 205.494L777.01 172.164L776.91 225.354L763.22 225.324L763.17 152.374L779.07 151.984L802.26 183.654L825.34 152.144L841.16 152.094L841.17 225.074L827.35 225.474Z" fill="black"/>
<path d="M637.301 192.734L597.521 192.754L597.531 209.384L638.831 209.374L638.781 223.124L583.541 223.094L583.571 149.484L638.801 149.504L638.691 163.004L597.551 162.934L597.461 179.824L637.281 179.864L637.301 192.734Z" fill="black"/>
<path d="M943.659 225.158L934.799 225.228L896.289 175.868L896.109 225.378L882.309 225.338L882.279 152.018L893.509 151.828L929.409 196.978L929.809 151.888L943.619 151.898L943.659 225.158Z" fill="black"/>
<path d="M385.99 195.252L346.13 195.312L346.28 211.872H387.51L387.59 225.362L332.27 225.393L332.24 151.932L387.44 151.812L387.49 165.412L346.16 165.352V182.382L386.08 182.362L385.99 195.252Z" fill="black"/>
<path d="M1010.01 195.24L969.8 195.29L969.81 211.83L1011.51 211.91L1011.35 225.36L956.21 225.42L956.17 151.86L1011.36 151.82L1011.39 165.38L969.8 165.36V182.37L1009.8 182.35L1010.01 195.24Z" fill="black"/>
<path d="M171.78 211.652L133.2 211.572L126.64 225.482L111.82 225.352L144.75 151.962L159.94 151.922L192.83 225.222L177.98 225.542L171.78 211.652ZM166.14 198.722L152.35 167.422L138.61 198.682L166.14 198.722Z" fill="black"/>
<path d="M240.82 225.129C223.52 230.529 200.66 227.259 194.16 209.379L205.18 203.479C207.75 207.569 210.94 211.279 215.48 213.039C227.64 217.739 243.32 214.359 243.33 203.839C243.35 190.249 219.03 196.169 204.97 186.709C198.56 182.399 196.45 175.039 197.51 167.549C199.67 152.249 219.86 146.859 236.97 150.669C244.53 152.349 250.69 156.629 254.7 163.809L243.88 169.599C236.63 160.949 224.18 158.789 214.27 164.569C212.24 165.759 210.73 169.759 210.88 171.869C211.73 183.699 238.08 177.129 250.9 188.679C256.97 194.149 258.25 202.559 256.18 210.389C254.4 217.119 248.53 222.729 240.81 225.139L240.82 225.129Z" fill="black"/>
<path d="M1281.4 224.032C1264.58 231.152 1238.59 228.062 1231.82 209.312L1243.3 203.402C1248.59 214.932 1264.12 217.712 1275.05 213.022C1279.31 211.192 1281.43 207.282 1281.07 202.952C1280.79 199.552 1277.17 195.662 1272.95 194.862L1252.18 190.912C1242.66 189.102 1236.13 182.302 1235.15 173.902C1234.05 164.412 1238.84 156.482 1247.75 152.682C1262.83 146.252 1285.66 148.972 1292.5 164.092L1281.88 169.462C1274.57 161.342 1262.22 158.772 1252.28 164.352C1249.98 165.642 1248.44 169.502 1248.59 171.852C1248.73 173.982 1251.21 177.612 1253.65 178.112L1266.2 180.702C1279.1 183.362 1293.76 184.812 1294.83 202.342C1295.41 211.892 1290.79 220.062 1281.39 224.042L1281.4 224.032Z" fill="black"/>
<path d="M300.701 225.242L286.841 225.382L286.831 164.502L263.471 164.402L263.541 151.852L323.941 151.872L324.221 164.472L300.691 164.482L300.701 225.242Z" fill="black"/>
<path d="M1226.16 212.687L1226.33 225.397L1174.43 225.407L1174.44 152.067L1188.37 151.867L1188.39 212.657L1226.16 212.687Z" fill="black"/>
<path d="M868.23 151.805H854.33V225.455H868.23V151.805Z" fill="black"/>
<path d="M615.551 89.6976L623.761 92.9476C622.651 89.2676 621.741 87.9676 619.691 85.9176C610.381 76.6376 601.481 67.5176 590.701 60.0376C577.671 50.9876 565.441 43.7176 554.061 54.9376C541.951 66.8876 531.971 79.7676 521.291 92.9776L512.801 101.258C499.631 95.3976 478.561 81.5576 488.341 71.8676L541.901 18.7976C547.291 13.4576 553.041 7.68763 560.391 5.48763C570.111 2.57763 581.031 5.6276 589.131 11.7076C607.981 25.8576 625.221 41.0676 642.201 57.4076C645.941 61.0076 647.561 65.2776 653.041 67.8576L649.711 59.1976C650.981 56.1176 656.871 53.1376 660.981 55.0676C664.631 63.8576 665.631 73.5276 667.861 83.0576L676.481 119.938L658.391 115.248C642.751 111.198 627.501 108.798 612.721 101.778C612.291 97.5576 613.571 93.4776 615.541 89.7076L615.551 89.6976Z" fill="#78B933"/>
<path d="M540.63 286.127C539.96 290.717 535.23 293.417 530.9 292.557L489.01 284.257L456.57 276.797C448.53 274.947 439.97 273.337 433.67 267.487C426.51 260.837 424.06 250.217 424.75 240.157C426.35 216.697 429.58 193.837 434.28 170.927C435.28 166.037 437.43 162.217 436.69 157.247L430.84 165.857L422.65 160.817C421.43 160.067 422.15 155.737 423.18 154.697L434.17 143.607C445.7 131.967 457.24 120.747 467.71 108.367L478.27 138.347L484.96 158.847C486.04 162.687 488.17 168.317 486.72 171.987C485.06 176.187 478.64 176.357 475.39 175.467L474.2 168.357L471.65 171.077C467.42 185.707 465.17 200.017 464.23 215.297C464.5 223.617 464.44 231.747 468.32 239.297C469.85 242.277 475.15 245.657 478.57 246.387C493.95 249.697 508.66 251.437 524.22 252.637C530.08 253.087 535.54 253.997 541.51 255.837C543.01 261.057 543.45 266.847 542.66 272.247L540.64 286.127H540.63Z" fill="#0CB4C4"/>
<path d="M572.08 290.709L590.55 270.789L601.92 258.159L609.08 251.259C612.01 248.439 615.29 244.209 620.16 244.229C623.28 244.249 626.93 249.429 628.16 252.229C625.42 254.099 623.43 255.129 621.98 257.859C636.31 256.009 648.37 251.509 661.03 246.229C669.78 242.579 677.99 237.819 684.81 231.249C689.04 227.179 689.83 220.329 688.26 214.639C684.04 199.349 677.9 185.219 671.64 170.629L667.13 155.319C676.16 149.009 694.85 139.489 700.25 143.149C704.71 146.179 706.03 151.999 707.5 157.019L725.54 218.789C727.92 226.919 730.57 235.569 728.79 244.269C727.01 252.969 719.22 261.069 710.62 265.099C689.02 275.239 666.87 283.049 644.07 290.349C638.96 291.989 634.91 291.389 629.2 294.939L639.42 296.139C640.69 298.669 641.48 305.539 637.18 307.669C634.74 308.259 629.82 307.149 626.92 306.229C608.54 300.379 590.34 295.039 572.1 290.689L572.08 290.709Z" fill="#F59E2E"/>
<path d="M759.775 268.977V262.638H789.64V268.977H778.507V299.002H770.907V268.977H759.775ZM794.558 299.002V262.638H808.905C811.651 262.638 813.995 263.13 815.936 264.112C817.889 265.083 819.374 266.462 820.392 268.249C821.422 270.025 821.937 272.114 821.937 274.517C821.937 276.932 821.416 279.009 820.375 280.749C819.333 282.477 817.824 283.803 815.847 284.726C813.882 285.65 811.503 286.111 808.709 286.111H799.103V279.932H807.466C808.934 279.932 810.153 279.731 811.124 279.329C812.095 278.926 812.817 278.323 813.29 277.518C813.776 276.713 814.018 275.712 814.018 274.517C814.018 273.31 813.776 272.292 813.29 271.463C812.817 270.634 812.089 270.007 811.106 269.581C810.136 269.143 808.91 268.924 807.431 268.924H802.246V299.002H794.558ZM814.196 282.454L823.233 299.002H814.746L805.904 282.454H814.196ZM833.638 299.002H825.4L837.953 262.638H847.861L860.396 299.002H852.157L843.049 270.948H842.765L833.638 299.002ZM833.123 284.709H852.584V290.71H833.123V284.709ZM883.669 273.096C883.527 271.664 882.918 270.551 881.84 269.758C880.763 268.965 879.301 268.569 877.455 268.569C876.2 268.569 875.141 268.746 874.277 269.101C873.412 269.445 872.75 269.924 872.288 270.54C871.838 271.155 871.613 271.854 871.613 272.635C871.589 273.286 871.726 273.854 872.022 274.339C872.329 274.825 872.75 275.245 873.282 275.6C873.815 275.943 874.43 276.245 875.129 276.506C875.827 276.754 876.573 276.967 877.366 277.145L880.633 277.926C882.219 278.281 883.675 278.755 885.001 279.346C886.327 279.938 887.475 280.666 888.446 281.53C889.416 282.395 890.168 283.413 890.701 284.584C891.245 285.756 891.523 287.1 891.535 288.615C891.523 290.84 890.955 292.77 889.83 294.403C888.718 296.025 887.108 297.286 885.001 298.185C882.906 299.073 880.379 299.517 877.419 299.517C874.484 299.517 871.927 299.067 869.749 298.167C867.583 297.268 865.89 295.936 864.671 294.172C863.463 292.397 862.83 290.201 862.771 287.585H870.21C870.293 288.804 870.643 289.822 871.258 290.639C871.885 291.444 872.72 292.054 873.762 292.468C874.815 292.87 876.005 293.072 877.33 293.072C878.633 293.072 879.763 292.882 880.722 292.503C881.692 292.125 882.444 291.598 882.977 290.923C883.509 290.248 883.776 289.473 883.776 288.597C883.776 287.78 883.533 287.094 883.048 286.538C882.574 285.981 881.876 285.508 880.953 285.117C880.041 284.726 878.923 284.371 877.597 284.052L873.637 283.057C870.572 282.312 868.151 281.146 866.375 279.56C864.6 277.973 863.718 275.837 863.73 273.15C863.718 270.948 864.304 269.024 865.487 267.379C866.683 265.734 868.322 264.449 870.406 263.526C872.489 262.603 874.857 262.141 877.508 262.141C880.207 262.141 882.563 262.603 884.575 263.526C886.599 264.449 888.173 265.734 889.298 267.379C890.422 269.024 891.002 270.93 891.038 273.096H883.669ZM896.706 299.002V262.638H904.395V277.642H920.002V262.638H927.672V299.002H920.002V283.981H904.395V299.002H896.706ZM944.198 268.977V262.638H974.063V268.977H962.931V299.002H955.331V268.977H944.198ZM1010.74 280.82C1010.74 284.786 1009.99 288.159 1008.48 290.941C1006.99 293.723 1004.96 295.847 1002.38 297.315C999.806 298.771 996.918 299.499 993.71 299.499C990.479 299.499 987.578 298.765 985.01 297.297C982.441 295.83 980.411 293.705 978.92 290.923C977.428 288.141 976.682 284.774 976.682 280.82C976.682 276.855 977.428 273.481 978.92 270.699C980.411 267.918 982.441 265.799 985.01 264.343C987.578 262.875 990.479 262.141 993.71 262.141C996.918 262.141 999.806 262.875 1002.38 264.343C1004.96 265.799 1006.99 267.918 1008.48 270.699C1009.99 273.481 1010.74 276.855 1010.74 280.82ZM1002.94 280.82C1002.94 278.252 1002.56 276.085 1001.79 274.322C1001.03 272.558 999.96 271.22 998.575 270.309C997.19 269.397 995.569 268.942 993.71 268.942C991.852 268.942 990.23 269.397 988.845 270.309C987.46 271.22 986.383 272.558 985.614 274.322C984.856 276.085 984.477 278.252 984.477 280.82C984.477 283.389 984.856 285.555 985.614 287.319C986.383 289.082 987.46 290.42 988.845 291.332C990.23 292.243 991.852 292.699 993.71 292.699C995.569 292.699 997.19 292.243 998.575 291.332C999.96 290.42 1001.03 289.082 1001.79 287.319C1002.56 285.555 1002.94 283.389 1002.94 280.82ZM1026.62 268.977V262.638H1056.49V268.977H1045.35V299.002H1037.75V268.977H1026.62ZM1061.4 299.002V262.638H1075.75C1078.5 262.638 1080.84 263.13 1082.78 264.112C1084.74 265.083 1086.22 266.462 1087.24 268.249C1088.27 270.025 1088.78 272.114 1088.78 274.517C1088.78 276.932 1088.26 279.009 1087.22 280.749C1086.18 282.477 1084.67 283.803 1082.69 284.726C1080.73 285.65 1078.35 286.111 1075.56 286.111H1065.95V279.932H1074.31C1075.78 279.932 1077 279.731 1077.97 279.329C1078.94 278.926 1079.66 278.323 1080.14 277.518C1080.62 276.713 1080.86 275.712 1080.86 274.517C1080.86 273.31 1080.62 272.292 1080.14 271.463C1079.66 270.634 1078.94 270.007 1077.95 269.581C1076.98 269.143 1075.76 268.924 1074.28 268.924H1069.09V299.002H1061.4ZM1081.04 282.454L1090.08 299.002H1081.59L1072.75 282.454H1081.04ZM1094.22 299.002V262.638H1118.72V268.977H1101.91V277.642H1117.46V283.981H1101.91V292.663H1118.79V299.002H1094.22ZM1131.1 299.002H1122.86L1135.41 262.638H1145.32L1157.86 299.002H1149.62L1140.51 270.948H1140.23L1131.1 299.002ZM1130.59 284.709H1150.05V290.71H1130.59V284.709ZM1181.13 273.096C1180.99 271.664 1180.38 270.551 1179.3 269.758C1178.23 268.965 1176.76 268.569 1174.92 268.569C1173.66 268.569 1172.6 268.746 1171.74 269.101C1170.87 269.445 1170.21 269.924 1169.75 270.54C1169.3 271.155 1169.08 271.854 1169.08 272.635C1169.05 273.286 1169.19 273.854 1169.48 274.339C1169.79 274.825 1170.21 275.245 1170.74 275.6C1171.28 275.943 1171.89 276.245 1172.59 276.506C1173.29 276.754 1174.03 276.967 1174.83 277.145L1178.09 277.926C1179.68 278.281 1181.14 278.755 1182.46 279.346C1183.79 279.938 1184.94 280.666 1185.91 281.53C1186.88 282.395 1187.63 283.413 1188.16 284.584C1188.71 285.756 1188.99 287.1 1189 288.615C1188.99 290.84 1188.42 292.77 1187.29 294.403C1186.18 296.025 1184.57 297.286 1182.46 298.185C1180.37 299.073 1177.84 299.517 1174.88 299.517C1171.95 299.517 1169.39 299.067 1167.21 298.167C1165.04 297.268 1163.35 295.936 1162.13 294.172C1160.93 292.397 1160.29 290.201 1160.23 287.585H1167.67C1167.76 288.804 1168.1 289.822 1168.72 290.639C1169.35 291.444 1170.18 292.054 1171.22 292.468C1172.28 292.87 1173.47 293.072 1174.79 293.072C1176.09 293.072 1177.22 292.882 1178.18 292.503C1179.15 292.125 1179.91 291.598 1180.44 290.923C1180.97 290.248 1181.24 289.473 1181.24 288.597C1181.24 287.78 1181 287.094 1180.51 286.538C1180.04 285.981 1179.34 285.508 1178.41 285.117C1177.5 284.726 1176.38 284.371 1175.06 284.052L1171.1 283.057C1168.03 282.312 1165.61 281.146 1163.84 279.56C1162.06 277.973 1161.18 275.837 1161.19 273.15C1161.18 270.948 1161.77 269.024 1162.95 267.379C1164.14 265.734 1165.78 264.449 1167.87 263.526C1169.95 262.603 1172.32 262.141 1174.97 262.141C1177.67 262.141 1180.02 262.603 1182.04 263.526C1184.06 264.449 1185.64 265.734 1186.76 267.379C1187.88 269.024 1188.46 270.93 1188.5 273.096H1181.13ZM1216.63 262.638H1224.32V286.253C1224.32 288.905 1223.68 291.225 1222.42 293.214C1221.16 295.202 1219.41 296.753 1217.14 297.866C1214.88 298.966 1212.25 299.517 1209.24 299.517C1206.22 299.517 1203.58 298.966 1201.32 297.866C1199.06 296.753 1197.31 295.202 1196.05 293.214C1194.8 291.225 1194.17 288.905 1194.17 286.253V262.638H1201.86V285.596C1201.86 286.981 1202.16 288.212 1202.76 289.29C1203.38 290.367 1204.24 291.213 1205.35 291.829C1206.47 292.444 1207.76 292.752 1209.24 292.752C1210.73 292.752 1212.03 292.444 1213.13 291.829C1214.24 291.213 1215.1 290.367 1215.71 289.29C1216.32 288.212 1216.63 286.981 1216.63 285.596V262.638ZM1230.64 299.002V262.638H1244.99C1247.74 262.638 1250.08 263.13 1252.02 264.112C1253.97 265.083 1255.46 266.462 1256.48 268.249C1257.51 270.025 1258.02 272.114 1258.02 274.517C1258.02 276.932 1257.5 279.009 1256.46 280.749C1255.42 282.477 1253.91 283.803 1251.93 284.726C1249.97 285.65 1247.59 286.111 1244.79 286.111H1235.19V279.932H1243.55C1245.02 279.932 1246.24 279.731 1247.21 279.329C1248.18 278.926 1248.9 278.323 1249.38 277.518C1249.86 276.713 1250.1 275.712 1250.1 274.517C1250.1 273.31 1249.86 272.292 1249.38 271.463C1248.9 270.634 1248.17 270.007 1247.19 269.581C1246.22 269.143 1245 268.924 1243.52 268.924H1238.33V299.002H1230.64ZM1250.28 282.454L1259.32 299.002H1250.83L1241.99 282.454H1250.28ZM1263.46 299.002V262.638H1287.96V268.977H1271.14V277.642H1286.7V283.981H1271.14V292.663H1288.03V299.002H1263.46Z" fill="#76B730"/>
</g>
<defs>
<clipPath id="clip0_18689_35214">
<rect width="1295" height="315" fill="white"/>
</clipPath>
</defs>
</svg>
